<?xml version="1.0" encoding="utf-8"?>
<!-- Generator: Adobe Illustrator 24.0.2, SVG Export Plug-In . SVG Version: 6.00 Build 0)  -->
<svg version="1.1" id="Layer_1" xmlns="http://www.w3.org/2000/svg" xmlns:xlink="http://www.w3.org/1999/xlink" x="0px" y="0px"
	 viewBox="0 0 350 130" style="enable-background:new 0 0 350 130;" xml:space="preserve">
<style type="text/css">
	.st0{fill-rule:evenodd;clip-rule:evenodd;fill:#E73900;}
	.st1{fill-rule:evenodd;clip-rule:evenodd;fill:#E78C00;}
	.st2{fill-rule:evenodd;clip-rule:evenodd;fill:#E7E100;}
	.st3{fill-rule:evenodd;clip-rule:evenodd;fill:#FFFF9E;}
	.st4{fill-rule:evenodd;clip-rule:evenodd;fill:#ECECEC;stroke:#000000;stroke-width:3;}
	.st5{fill:#CCCCCC;}
	.st6{fill-rule:evenodd;clip-rule:evenodd;fill:#FF0000;stroke:#000000;stroke-width:3;}
	.st7{fill-rule:evenodd;clip-rule:evenodd;fill:#B3B3B3;stroke:#000000;stroke-width:3;}
	.st8{fill-rule:evenodd;clip-rule:evenodd;fill:#D20000;}
	.st9{fill-rule:evenodd;clip-rule:evenodd;fill:#999999;}
	.st10{fill-rule:evenodd;clip-rule:evenodd;fill:#CCCCCC;}
	.st11{fill:none;stroke:#000000;stroke-width:3;}
	.st12{fill:#FF0000;stroke:#000000;stroke-width:3;stroke-linecap:round;}
	.st13{fill:#FFFFFF;}
	.st14{fill-rule:evenodd;clip-rule:evenodd;fill:#FFFFFF;}
</style>
<g>
	<title>Layer 1</title>
	
		<g id="svg_29" transform="rotate(-135 381.7463989257812,272.8946228027344) translate(95,26) translate(66,0) translate(117,124) translate(46,0) translate(-61,-34) translate(282.1893005371094,0) scale(0.8557825088500977,1) translate(-282.1893005371094,0) translate(-9.037540435791016,394.4143371582031) scale(1,0.8123800158500671) translate(9.037540435791016,-394.4143371582031) translate(-9.037540435791016,0) scale(0.594817578792572,0.7033576369285583) translate(9.037540435791016,0) translate(-9.037540435791016,0) scale(0.7519532442092896,0.6343238949775696) translate(9.037540435791016,0) translate(282.1893005371094,0) scale(0.46090131998062134,1.1597305536270142) translate(-282.1893005371094,0) ">
		<path id="svg_27" class="st0" d="M1726.2,284c-139.3,91.1-210.8,71.7-449.8,173.8c85-61.1,221.8-120.9,250.7-144
			c24.1-17.5,60.2-35.3,103.7-50.6c33.5-12.6,58-35.3,93.6-45C1698.5,247.6,1770.4,254.1,1726.2,284z"/>
		<path id="svg_26" class="st0" d="M1711.4,231.6c-35.7,13.3-34.8,26.6-56,40.1c-10.3,13-39.8,27-71.9,39.4
			c-50.9,20-377,128.5-485.3,148c137-43.6,282.4-118.9,323.6-147.1c33.5-21.2,79.9-41.9,132.9-58.9c41.2-14.1,77.2-17.2,119.2-27.5
			C1701.8,220.6,1712.9,224.1,1711.4,231.6z"/>
		<path id="svg_25" class="st0" d="M1719.5,220.7c-34.6,9.8-75.7,31.8-101.8,43.7c-19.1,12.8-50.8,24.2-82.4,33.5
			c-50.5,15.2-267.4,96.5-443.9,100c208.9-29.9,292.9-94.2,345.7-119.5c41.2-18.7,89.8-35.5,138.4-46.8
			C1642.7,215.8,1703.9,218.4,1719.5,220.7z"/>
		<path id="svg_24" class="st1" d="M1713.8,233.3c-29.1,10.8-29.4,21.3-47,32.1c-9.1,10.3-33.3,21.7-59.6,31.7
			c-41.6,16.3-281.3,93.1-390.6,123.4c227-78.3,228.3-98.1,262.8-120.7c27.9-17,66-33.8,109.1-47.8c33.5-11.5,68.7-19.9,102.5-28.4
			C1713.5,219.4,1715.6,227.4,1713.8,233.3z"/>
		<path id="svg_23" class="st1" d="M1719.3,270.8c-80.2,69.8-140,49.4-301.4,121.3c66.8-38.2,115.8-67.5,168.5-92.2
			c12.3-11.7,109.4-72.6,134-80.4C1711.3,238.3,1742.4,250.7,1719.3,270.8z"/>
		<path id="svg_22" class="st2" d="M1702.4,269.3c-42.3,39.6-104.4,45.4-191.8,78.7c69-32.6,63.5-51.2,109.9-68.4
			c9.8-7.1,87-54.1,101.4-58.1C1711.3,233.4,1718.4,254.4,1702.4,269.3z"/>
		<path id="svg_21" class="st1" d="M1648,252c-14.4,9.6-38.1,18.1-61.8,25.1c-37.9,11.4-244.2,76.4-307.6,82
			c94.3-22.3,194.4-77.7,234-96.6c30.9-14,69.9-29.4,103.9-35.1c51.3-8.7,89.7-9.7,104.1-7.5C1736.7,218.4,1667.6,243,1648,252z"/>
		<path id="svg_20" class="st2" d="M1716.5,232.7c-18.1,6.5-19.2,13.1-30.5,19.8c-6.3,6.4-21.5,13.3-37.9,19.4
			c-25.9,9.8-187.1,71-239.7,80.4c68.6-21.3,142.1-66.5,164.4-80.4c17.9-10.4,41.8-20.6,68.4-28.9c20.7-6.9,42.1-11.7,62.8-16.7
			C1717.6,223.9,1718,229,1716.5,232.7z"/>
		<path id="svg_19" class="st2" d="M1712.9,229.1c-15.5,3.2-26.1,10.5-39.8,15.4c-11.9,5.9-27.1,10.2-41.4,13.3
			c-22.9,5.1-169.4,54.2-199.7,52.5c53.6-8.2,133.8-59.4,162-70.1c21.6-7.7,59.7-14,80.5-17.2c16.9-3,37.2-3.9,51.1-4.8
			C1723.1,222.7,1719.1,225.2,1712.9,229.1z"/>
		<path id="svg_18" class="st3" d="M1704.1,237c-31.3,20.2-80.9,35.8-135.1,52.8c32.1-13.7,65.3-33,74.3-40.2
			c7.5-5.5,18.8-11,32.4-15.8c10.5-3.9,25.1-7.8,36.2-10.8C1703.8,232,1717.9,227.6,1704.1,237z"/>
		<path id="svg_17" class="st3" d="M1672.6,239.5c-52,13.2-79.3,29.9-131.7,34.9c37.5-9.7,76.4-34.6,95.4-40.6
			c31.9-10.2,69.1-11.5,75.2-10.6C1686.3,232,1697,233,1672.6,239.5z"/>
		<path id="svg_16" class="st3" d="M1150.9,534.7"/>
	</g>
	<g id="svg_1" transform="rotate(45.51949691772461 482.0426025390626,169.65783691406247) ">
		<path id="path3217" class="st4" d="M79.9,414.7c10.5,1.3,95,8.2,146.6-101.1L195.3,279l-0.1-0.1C81.1,318.7,79.2,403.5,79.4,414.1
			L79.9,414.7z"/>
		<path id="path3219" class="st5" d="M132.2,365c6.5,7.2,18.2,7.3,26,0.3c7.9-7.1,8.9-18.7,2.4-25.9c-6.5-7.2-18.2-7.4-26-0.3
			C126.8,346.1,125.7,357.8,132.2,365z M133.9,363.5c-5.7-6.4-4.8-16.6,2.2-22.9c6.9-6.2,17.2-6.1,23,0.3c5.7,6.4,4.8,16.6-2.2,22.8
			C149.9,369.9,139.6,369.8,133.9,363.5z"/>
		<path id="path2419" class="st6" d="M134.7,407.2l-24.4,6.7l-25,1.3l-5.8-0.8l3-25.3l8.4-25.3l2.9-4l41.9,46.9"/>
		<path id="path2408" class="st6" d="M202.9,354.2c0,0,18.4,21,64.4-43.1c0,0-48.9,41.9-52.8,25.6"/>
		<path id="path2410" class="st6" d="M152.3,298c0,0-19-20.5,49.6-59.5c0,0-46.8,44.2-31,49.9"/>
		<path id="path2423" class="st7" d="M219.3,329.2l7.1-15.6L194.8,279l-15.2,6.2L219.3,329.2z"/>
		<path id="path3209" class="st8" d="M153.7,288l14.2-5.7l0,4.3l3.7,1.6l-19.3,10.6l-2.4-9.9c0,0-1.7-19.4,49.8-49.5
			C150.1,274.6,153.9,288.2,153.7,288z"/>
		<path id="path3213" class="st8" d="M267.2,312.3c0,0-44.6,43.7-56.8,30.6c-1.3-1.4,3.9-6,3.9-6l6,4.1l17.7-8.5L267.2,312.3z"/>
		<path id="path3232" class="st9" d="M191.1,298c1.9-3.1,5-6.8,10.3-11.2c-0.1-0.2-0.2-0.5-0.2-0.8l-6.4-7.1l-12.2,5
			c-0.7,0.8-1.2,1.6-1.8,2.4L191.1,298z"/>
		<path id="path3227" class="st10" d="M173.2,323.2c1.1,1.4,2.1,2,2.1,2l17.3-13.8c0,0-5.3-3.8-0.3-12.3l-10.4-11.5
			C166.2,308.5,170.1,319.2,173.2,323.2z"/>
		<path id="path3241" class="st10" d="M219.7,327.8l7-13.4l-4.5-5.8L211.7,321L219.7,327.8z"/>
		<path id="path2394" class="st11" d="M135.1,406.8l-41.4-46"/>
		<path id="path2400" class="st11" d="M352.2,817.6"/>
		<path id="path2402" class="st11" d="M352.2,817.6"/>
		<path id="path2417" class="st11" d="M219,328.5L179.9,285"/>
		<path id="rect2414" class="st12" d="M178.8,328.3l-3.2-3.5l57.4-51.7l3.2,3.5L178.8,328.3z"/>
		<path id="path2425" class="st10" d="M178.9,289.5c0,0-53.2,19.6-79.6,66c66.2-60.7,91.4-52.9,91.4-52.9L178.9,289.5z"/>
		<polygon id="rect2429" class="st13" points="134.2,359.1 135.1,349.8 157.9,349.9 157,359.3 		"/>
		<path id="path2431" class="st13" d="M352.2,817.6"/>
		<path id="path2437" class="st8" d="M94.7,368.4c0,0-11.8,21.6-10.5,41.4c12.6-30.5,21.8-28.8,21.8-28.8L94.7,368.4z"/>
		<path id="path3211" class="st11" d="M152.3,298c0,0-19-20.5,49.6-59.5c0,0-46.8,44.2-31,49.9"/>
		<path id="path3215" class="st11" d="M202.9,354.2c0,0,18.4,21,64.4-43.1c0,0-48.9,41.9-52.8,25.6"/>
		<path id="path3237" class="st14" d="M128.8,407.5c0,0-31.2,9.4-44.7,5.9C70.6,410,129.1,406.9,128.8,407.5z"/>
		<path id="path3239" class="st14" d="M192.5,361.2c0.2,0.9-26.8,32.1-54.1,39.7c-10.3-1.2-14.7-11.5-12.3-13
			C147.2,374.8,191.4,355.6,192.5,361.2z"/>
		<path id="path2382" class="st11" d="M79.9,414.7c10.5,1.3,95,8.2,146.6-101.1L195.3,279l-0.1-0.1
			C81.1,318.7,79.2,403.5,79.4,414.1L79.9,414.7z"/>
	</g>
	<path id="svg_1756" class="st11" d="M324.1,532.1"/>
	<path id="svg_1755" class="st11" d="M324.1,532.1"/>
	<path id="svg_1754" class="st11" d="M324.1,532.1"/>
	<path id="svg_1753" class="st11" d="M324.1,532.1"/>
	<path id="svg_1752" class="st11" d="M324.1,532.1"/>
	<path id="svg_1751" class="st11" d="M324.1,532.1"/>
	<path id="svg_1750" class="st11" d="M324.1,532.1"/>
	<path id="svg_1749" class="st11" d="M324.1,532.1"/>
	<path id="svg_1748" class="st11" d="M324.1,532.1"/>
	<path id="svg_1747" class="st11" d="M324.1,532.1"/>
	<path id="svg_1746" class="st11" d="M324.1,532.1"/>
	<path id="svg_1745" class="st11" d="M324.1,532.1"/>
	<path id="svg_13" class="st11" d="M324.1,532.1"/>
	<path id="svg_12" class="st11" d="M324.1,532.1"/>
	<path id="svg_11" class="st11" d="M324.1,532.1"/>
	<path id="svg_10" class="st11" d="M324.1,532.1"/>
	<path id="svg_9" class="st11" d="M324.1,532.1"/>
	<path id="svg_8" class="st11" d="M324.1,532.1"/>
	<path id="svg_7" class="st11" d="M324.1,532.1"/>
	<path id="svg_6" class="st11" d="M324.1,532.1"/>
	<path id="svg_5" class="st11" d="M324.1,532.1"/>
	<path id="svg_4" class="st11" d="M324.1,532.1"/>
	<g id="svg_1758">
	</g>
	<g id="svg_15" transform="translate(0,0) scale(NaN,NaN) translate(0,0) ">
		<path id="svg_3" class="st11" d="M324.1,532.1"/>
		<path id="svg_2" class="st11" d="M324.1,532.1"/>
	</g>
</g>
</svg>
