<?xml version="1.0" encoding="UTF-8"?>
<svg width="500" height="500" version="1.1" viewBox="0 0 500.00001 500.00001" xmlns="http://www.w3.org/2000/svg">
 <g transform="translate(0 -552.36)">
  <rect y="552.36" width="500" height="500" ry="0" fill="#000140"/>
 </g>
 <g transform="matrix(.84344 .84344 -.84344 .84344 276.37 -198.09)">
  <path d="m249.98 70.407s-30.634 58.382-33.889 94.272c-3.0797 33.956 2.2229 88.771-2.1614 122.77l-29.849 54.762v45.96h7.9128l24.235-16.501c20.582-14.014 26.792 16.501 33.752 16.501s13.17-30.515 33.752-16.501l24.235 16.501h7.9128v-45.96l-29.849-54.762c-4.3844-33.997 0.91826-88.812-2.1614-122.77-3.2552-35.89-33.889-94.272-33.889-94.272z" fill="#ff0202" fill-rule="evenodd"/>
  <g transform="matrix(1.0138 0 0 1.0138 1.8767 -26.189)">
   <path d="m179.72 312.72s9.6188 16.128 13.181 33.445c3.5625 17.318 3.7005 67.849 3.7005 67.849h-33.764s0.0457-50.531 3.5622-67.849c3.5164-17.318 13.32-33.445 13.32-33.445z" fill="#ff0202"/>
   <path d="m179.71 312.72v101.29h16.883s-0.13868-50.53-3.7012-67.848c-3.5625-17.318-13.182-33.445-13.182-33.445z" fill="#e90000" fill-rule="evenodd"/>
  </g>
  <path d="m249.98 70.408v317.76c6.9602 0 13.17-30.515 33.752-16.501l24.235 16.501h7.9128v-45.96l-29.849-54.762c-4.3844-33.997 0.91735-88.811-2.1624-122.77-3.2552-35.89-33.889-94.272-33.889-94.272z" fill="#e90000" fill-rule="evenodd"/>
  <rect x="248.88" y="60.12" width="2.2088" height="16.058" fill="#ff0202"/>
  <rect x="249.98" y="60.12" width="1.1044" height="16.058" fill="#e90000"/>
  <circle cx="249.98" cy="60.12" r="3.5519" fill="#ff0202"/>
  <path d="m249.98 56.568v7.1041a3.5519 3.5519 0 0 0 3.5521 -3.5521 3.5519 3.5519 0 0 0 -3.5521 -3.5521z" fill="#e90000"/>
  <g transform="matrix(1.0138 0 0 1.0138 133.68 -26.188)">
   <path d="m179.72 312.72s9.6188 16.128 13.181 33.445c3.5625 17.318 3.7005 67.849 3.7005 67.849h-33.764s0.0457-50.531 3.5622-67.849c3.5164-17.318 13.32-33.445 13.32-33.445z" fill="#ff0202"/>
   <path d="m179.71 312.72v101.29h16.883s-0.13868-50.53-3.7012-67.848c-3.5625-17.318-13.182-33.445-13.182-33.445z" fill="#e90000" fill-rule="evenodd"/>
  </g>
  <circle cx="249.98" cy="174.4" r="15.043" fill="#adaed3" stroke="#42406b" stroke-linecap="round" stroke-linejoin="round" stroke-width="3.274"/>
  <g transform="matrix(.41299 0 0 .36956 163.64 357.23)">
   <path d="m49.501 227.98s-12.836-25.908-18.018-44.215c-7.1707-25.333-18.018-77.496-18.018-77.496h72.072s-10.847 52.163-18.018 77.496c-5.1821 18.308-18.018 44.215-18.018 44.215z" fill="#ff0202"/>
   <path d="m49.501 184.84s-8.5206-22.26-11.961-34.413c-4.76-16.817-11.961-46.381-11.961-46.381h47.842s-7.2006 29.565-11.961 46.381c-3.44 12.153-11.961 34.413-11.961 34.413z" fill="#fff454"/>
  </g>
  <path d="m184.08 396.51 2e-3 44.98s5.3006-9.5749 7.4407-16.341c2.9614-9.3622 7.4407-28.639 7.4407-28.639h-14.883z" fill-opacity=".048544" fill-rule="evenodd"/>
  <g transform="matrix(1.0138 0 0 1.0138 1.8767 -26.189)">
   <rect x="159.86" y="410.12" width="39.716" height="7.7875" fill="#e90000"/>
   <rect x="179.72" y="410.12" width="19.858" height="7.7875" fill="#c60000"/>
  </g>
  <g transform="matrix(.41299 0 0 .36956 295.54 357.23)">
   <path d="m49.501 227.98s-12.836-25.908-18.018-44.215c-7.1707-25.333-18.018-77.496-18.018-77.496h72.072s-10.847 52.163-18.018 77.496c-5.1821 18.308-18.018 44.215-18.018 44.215z" fill="#ff0202"/>
   <path d="m49.501 184.84s-8.5206-22.26-11.961-34.413c-4.76-16.817-11.961-46.381-11.961-46.381h47.842s-7.2006 29.565-11.961 46.381c-3.44 12.153-11.961 34.413-11.961 34.413z" fill="#fff454"/>
  </g>
  <path d="m315.98 396.51 2e-3 44.98s5.3006-9.5749 7.4407-16.341c2.9614-9.3622 7.4407-28.639 7.4407-28.639h-14.883z" fill-opacity=".048544" fill-rule="evenodd"/>
  <g transform="matrix(1.0138 0 0 1.0138 133.77 -26.189)">
   <rect x="159.86" y="410.12" width="39.716" height="7.7875" fill="#e90000"/>
   <rect x="179.72" y="410.12" width="19.858" height="7.7875" fill="#c60000"/>
  </g>
  <path d="m215.08 274.98c-0.23232 3.7001-0.53728 7.246-0.9287 10.608h71.663c-0.39142-3.3618-0.69639-6.9077-0.92871-10.608h-69.805z" fill="#adaed3"/>
  <path d="m217.34 274.98v5.3029h5.3049v-5.3029h-5.3049zm5.3049 5.3029v5.3049h5.3029v-5.3049h-5.3029zm5.3029 0h5.3049v-5.3029h-5.3049v5.3029zm5.3049 0v5.3049h5.3029v-5.3049h-5.3029zm5.3029 0h5.3029v-5.3029h-5.3029v5.3029zm5.3029 0v5.3049h5.3049v-5.3049h-5.3049zm5.3049 0h5.3029v-5.3029h-5.3029v5.3029zm5.3029 0v5.3049h5.3049v-5.3049h-5.3049zm5.3049 0h5.3029v-5.3029h-5.3029v5.3029zm5.3029 0v5.3049h5.3049v-5.3049h-5.3049zm5.3049 0h5.3029v-5.3029h-5.3029v5.3029zm5.3029 0v5.3049h5.3029v-5.3049h-5.3029zm5.3029 0h4.2851c-0.14903-1.7276-0.27686-3.4995-0.3901-5.3029h-3.895v5.3029zm-63.645 0h-2.6554c-0.15674 1.817-0.33796 3.5816-0.53861 5.3049h3.194v-5.3049z" fill="#42406b"/>
 </g>
</svg>
